<?xml version="1.0" encoding="utf-8"?>
<!-- Generator: Adobe Illustrator 22.1.0, SVG Export Plug-In . SVG Version: 6.00 Build 0)  -->
<svg version="1.1" id="Layer_1" xmlns="http://www.w3.org/2000/svg" xmlns:xlink="http://www.w3.org/1999/xlink" x="0px" y="0px"
	 viewBox="0 0 300 300" style="enable-background:new 0 0 300 300;" xml:space="preserve">
<style type="text/css">
	.st0{fill:#A67C00;stroke:#000000;stroke-width:17;stroke-miterlimit:10;}
	.st1{fill:#A67C00;stroke:#000000;stroke-width:11;stroke-miterlimit:10;}
	.st2{stroke:#000000;stroke-width:7;stroke-miterlimit:10;}
</style>
<circle class="st0" cx="150.4" cy="150.4" r="137.9"/>
<path class="st1" d="M85.1,230.8h131.5c6.6,0,12-5.4,12-12V105.5c0-6.6-5.4-12-12-12H85.1c-6.6,0-12,5.4-12,12v113.3
	C73.1,225.4,78.5,230.8,85.1,230.8z"/>
<path class="st2" d="M215.2,151.8l-59.6-43.5c-6.8-4.9-5.7-15.3,2-18.7L225,59.7c7.7-3.4,16.1,2.8,15.2,11.1l-7.8,73.4
	C231.5,152.5,222,156.8,215.2,151.8z"/>
<path class="st2" d="M135.9,201.2l-1.9-1.4c-5.3-3.9-6.5-11.4-2.7-16.8l53.8-74.1c3.9-5.3,11.4-6.5,16.8-2.7l1.9,1.4
	c5.3,3.9,6.5,11.4,2.7,16.8l-53.8,74.1C148.7,203.9,141.2,205.1,135.9,201.2z"/>
</svg>
